<?xml version="1.0" encoding="UTF-8"?>
<svg id="Camada_1" data-name="Camada 1" xmlns="http://www.w3.org/2000/svg" xmlns:xlink="http://www.w3.org/1999/xlink" viewBox="0 0 1080 401.56">
  <defs>
    <style>
      .cls-1 {
        fill: #e59000;
      }

      .cls-1, .cls-2, .cls-3, .cls-4, .cls-5 {
        stroke-width: 0px;
      }

      .cls-2 {
        fill: none;
      }

      .cls-3 {
        fill: #1d741b;
      }

      .cls-6 {
        clip-path: url(#clippath);
      }

      .cls-4 {
        fill: url(#Gradiente_sem_nome_9);
      }

      .cls-5 {
        fill: #f6c71e;
      }
    </style>
    <clipPath id="clippath">
      <path class="cls-2" d="M238.26,316.78c-29.08,5.93-67.76-6.69-79.74-10.6-15.43-5.04-38.06-14.43-62.55-32.87-13.22,26.3-26.43,52.59-39.65,78.88,18.5,12.02,45.6,26.84,80.65,37.13,50.83,14.92,91.36,12.39,102.5,11.5,28.49-2.28,58.63-5.07,87.39-26.27,6.17-4.55,19.89-14.87,30.63-32.84,2.25-3.76,4.12-7.54,5.8-11.3l-125.04-13.63Z"/>
    </clipPath>
    <linearGradient id="Gradiente_sem_nome_9" data-name="Gradiente sem nome 9" x1="53.14" y1="58.76" x2="345.56" y2="364.63" gradientUnits="userSpaceOnUse">
      <stop offset="0" stop-color="#7f8184"/>
      <stop offset="1" stop-color="#414042"/>
    </linearGradient>
  </defs>
  <g>
    <path class="cls-3" d="M514.89,164.62c-1.57-.71-4.09-1.8-7.25-2.94-8.88-3.22-31.34-11.36-53.57-3.13-5.23,1.94-11.45,4.32-16.63,10.52-7.36,8.82-7.51,19.24-7.52,22.8,0,2.95.11,12.8,6.57,21.61,5.35,7.29,12.7,10.66,22.15,15.01,8.85,4.06,19.5,7.38,22.6,13.63.38.76,1.39,2.81.92,5.25-.6,3.09-3.23,4.87-4.15,5.49-3.09,2.1-6.69,2.48-12.93,1.97-9.44-.76-16.57-2.85-18.79-3.54-4.43-1.37-10.44-3.51-17.32-6.87v29.4c8.97,4.13,21.93,8.34,37.57,7.9,11.34-.32,24.87-.7,35.84-10.82,1.49-1.38,12.44-11.89,12.63-28.11.03-2.86.03-10.4-4.45-17.98-4.79-8.09-12.23-12.07-19.06-15.72-3.13-1.67-3.03-1.31-16.47-7.76-7.13-3.42-11.15-5.43-12.02-9.33-.04-.16-.79-3.77,1.4-6.6,5.48-7.08,23.43-1.64,30.53.51,4.36,1.32,7.86,2.77,10.21,3.83,3.25-8.37,6.51-16.74,9.76-25.12Z"/>
    <path class="cls-3" d="M570.24,165.79v18.99h23.21v24.43h-23.21c.14,5.49,0,23.72,0,23.72,0,0-.13,5.71-.14,9.37-.02,7.3.18,9.04,1.42,10.59,1.92,2.41,5.06,2.79,7.71,3.11,6.78.83,15.52-3.4,15.52-3.4v23.89c-4.77,2.13-12.87,5.02-23.2,5.18-8.39.13-17.87.27-25.46-6.39-9.68-8.5-9.31-21.93-9.2-24.42v-41.25h-11.43v-13.27l14.94-10.92,8.41-19.64h21.44Z"/>
    <path class="cls-3" d="M838,165.79v18.99h23.21v24.43h-23.21c.14,5.49,0,23.72,0,23.72,0,0-.13,5.71-.14,9.37-.02,7.3.18,9.04,1.42,10.59,1.92,2.41,5.06,2.79,7.71,3.11,6.78.83,15.52-3.4,15.52-3.4v23.89c-4.77,2.13-12.87,5.02-23.2,5.18-8.39.13-17.87.27-25.46-6.39-9.68-8.5-9.31-21.93-9.2-24.42v-41.25h-11.43v-13.27l14.94-10.92,8.41-19.64h21.44Z"/>
    <path class="cls-3" d="M640.33,184.15c8.87-1.32,36.05-5.35,49.31,11.23,2.24,2.8,6.88,9.69,6.98,22.1v62.41h-22.56c-2.36-4.2-4.72-8.39-7.08-12.59-2.4,3.12-8.05,9.56-17.46,12.74-12.15,4.12-28.94,2.27-37.2-8.61-5.45-7.18-5.57-16.17-5.62-20.01-.05-3.93-.11-8.87,2.45-14.09,6.24-12.73,22.48-15.74,26.19-16.43,3.92-.73,8.1-.87,16.45-1.17,4.92-.17,9.01-.16,11.84-.12,0,0,.47-5.18-1.77-8.49,0,0-1.48-2.19-4.24-3.68-5.03-2.71-17.26-.66-31.7,5.77l-9.87-21.37c5-2.51,13.38-6.09,24.26-7.71ZM642.65,241.37c-2.63,2.72-3.81,7.13-2.75,10.93.22.79.72,2.5,2.2,4,3.76,3.81,10.35,2.84,14.19,1.12,1.28-.57,4.26-1.9,6.02-5,1.7-3,1.76-6.76,1.79-8.33,0-.29,0-.53,0-.69v-5.96h-6.19c-.15,0-.38,0-.65,0-4.88.05-10.92.11-14.62,3.93Z"/>
    <path class="cls-3" d="M1013.31,184.15c8.87-1.32,36.05-5.35,49.31,11.23,2.24,2.8,6.88,9.69,6.98,22.1v62.41h-22.56c-2.36-4.2-4.72-8.39-7.08-12.59-2.4,3.12-8.05,9.56-17.46,12.74-12.15,4.12-28.94,2.27-37.2-8.61-5.45-7.18-5.57-16.17-5.62-20.01-.05-3.93-.11-8.87,2.45-14.09,6.24-12.73,22.48-15.74,26.19-16.43,3.92-.73,8.1-.87,16.45-1.17,4.92-.17,9.01-.16,11.84-.12,0,0,.47-5.18-1.77-8.49,0,0-1.48-2.19-4.24-3.68-5.03-2.71-17.26-.66-31.7,5.77l-9.87-21.37c5-2.51,13.38-6.09,24.26-7.71ZM1015.63,241.37c-2.63,2.72-3.81,7.13-2.75,10.93.22.79.72,2.5,2.2,4,3.76,3.81,10.35,2.84,14.19,1.12,1.28-.57,4.26-1.9,6.02-5,1.7-3,1.76-6.76,1.79-8.33,0-.29,0-.53,0-.69v-5.96h-6.19c-.15,0-.38,0-.65,0-4.88.05-10.92.11-14.62,3.93Z"/>
    <path class="cls-3" d="M751.89,280h-32.94v-95.2h24.4l5.41,15.25h1.28c1.3-2.42,5.65-9.76,14.91-14,9.9-4.54,18.9-2.54,21.46-1.88-.93,10.3-1.86,20.6-2.8,30.89-1.15-.21-2.83-.47-4.88-.62-7.46-.55-14.81-.87-20.22,3.48-6.93,5.56-6.43,16-6.32,17.64v.82l-.29,43.63Z"/>
    <polygon class="cls-3" points="1032.39 148.23 1068.46 148.23 1068.46 149.53 1031.5 175.85 1009.79 175.85 1009.79 173.27 1032.39 148.23"/>
    <path class="cls-3" d="M926.58,157.03h33.62v112.85c.03,1.51.03,3.67-.17,6.26-.45,5.92-1.22,16.17-7.72,25.54-1.03,1.48-5.79,8.13-14.6,12.66-11.1,5.72-22.2,4.79-29.63,4.16-3.71-.31-6.78-.86-8.92-1.32v-26.14c2.03.7,5.01,1.51,8.68,1.75,4.35.28,8.89.58,12.77-2.29,3.15-2.33,4.4-5.65,4.74-6.57.84-2.25,1-4.37,1.25-7.87.14-1.91.15-3.49.15-4.57v-.92l-.18-113.55Z"/>
  </g>
  <g>
    <path class="cls-5" d="M423.06,370.61v8.92c1.72.96,4.31,2.15,7.63,2.79,6.36,1.23,16.09.53,20.54-5.55,1.62-2.21,2.17-4.63,2.27-5.07.19-.88.86-4.15-.54-7.61-1.21-2.97-3.34-4.63-5.1-5.95-6.08-4.53-12.12-4.6-14.12-8.28-.19-.36-.74-1.36-.66-2.67,0,0,.1-1.73,1.62-3.36,2.02-2.16,8.25-1.78,15.51,1.15,1.09-2.54,2.18-5.07,3.27-7.61-1.76-.84-4.45-1.92-7.87-2.5-3.93-.67-13.74-2.34-19.01,3.8-3.17,3.69-4.05,9.46-2.2,13.79.93,2.17,2.3,3.43,4.06,5,6.52,5.81,14.2,6.8,15.27,10.26.44,1.44.13,2.72.13,2.72s-.29,1.2-1.23,2.22c-2.26,2.47-8.5,1.92-12.8.77-1.61-.43-4.03-1.24-6.78-2.82Z"/>
    <rect class="cls-5" x="502.51" y="331.79" width="10.11" height="50.03"/>
    <rect class="cls-5" x="731.81" y="334.71" width="10.11" height="47.11"/>
    <path class="cls-5" d="M476.98,344.93c2.09.02,6.66.06,10.72,3.06,6.57,4.85,6.62,13.57,6.64,15.72.01,2.25.06,10.79-6.33,15.68-4.32,3.3-9.34,3.23-11.43,3.2-2.01-.03-6.22-.08-10.11-2.76-7.19-4.95-7.15-14.67-7.15-16.34,0-2.09.05-10.7,6.53-15.52,4.21-3.13,9.01-3.08,11.13-3.06ZM473.46,374.2c1.99,1,4.43.94,6.33.05,4.73-2.22,4.73-8.97,4.74-10.31,0-1.7,0-7.74-4.33-9.9-2.24-1.12-5.05-.9-7.1.31-3.97,2.33-3.97,7.65-3.96,9.75,0,1.8,0,7.92,4.32,10.11Z"/>
    <path class="cls-5" d="M616.19,344.93c2.09.02,6.66.06,10.72,3.06,6.57,4.85,6.62,13.57,6.64,15.72.01,2.25.06,10.79-6.33,15.68-4.32,3.3-9.34,3.23-11.43,3.2-2.01-.03-6.22-.08-10.11-2.76-7.19-4.95-7.15-14.67-7.15-16.34,0-2.09.05-10.7,6.53-15.52,4.21-3.13,9.01-3.08,11.13-3.06ZM612.67,374.2c1.99,1,4.43.94,6.33.05,4.73-2.22,4.73-8.97,4.74-10.31,0-1.7,0-7.74-4.33-9.9-2.24-1.12-5.05-.9-7.1.31-3.97,2.33-3.97,7.65-3.96,9.75,0,1.8,0,7.92,4.32,10.11Z"/>
    <path class="cls-5" d="M556.11,345.95v35.86h-7.96l-1.29-4.35c-.66.84-1.73,2.02-3.32,3.07-.54.36-5.12,3.29-10.9,2.08-.99-.21-4.75-1.04-7.56-4.23-3.13-3.57-2.88-7.59-2.68-30.75,0-.34.01-1.35.01-1.68h10.01c0,.17.01.47.02.83.37,17.55-1.27,24.97,2.44,27.36,1.19.76,2.67.85,2.96.87,3.22.19,5.69-2.04,6.01-2.33,3.26-3.02,2.11-7.6,2.64-25.99,0-.32.02-.58.02-.74h9.6Z"/>
    <path class="cls-5" d="M753.14,381.82v-35.86h7.96l1.29,4.35c.66-.84,1.73-2.02,3.32-3.07.54-.36,5.12-3.29,10.9-2.08.99.21,4.75,1.04,7.56,4.23,3.13,3.57,2.88,7.59,2.68,30.75,0,.34-.01,1.35-.01,1.68h-10.01c0-.17-.01-.47-.02-.83-.37-17.55,1.27-24.97-2.44-27.36-1.19-.76-2.67-.85-2.96-.87-3.22-.19-5.69,2.04-6.01,2.33-3.26,3.02-2.11,7.6-2.64,25.99,0,.32-.02.58-.02.74h-9.6Z"/>
    <path class="cls-5" d="M593.31,347.61l-2.99,7.55c-.92-.51-2.34-1.17-4.16-1.47-1.08-.18-5.99-.99-9.27,2.15-2.47,2.37-2.6,5.63-2.69,7.87-.09,2.3-.25,6.29,2.58,8.93,3.23,3.02,8.06,2.14,9.61,1.85,2.61-.48,4.53-1.61,5.61-2.36v7.61c-.81.7-1.94,1.52-3.41,2.19-2.68,1.22-5.13,1.35-6.55,1.31-.01.18-.05.35-.11.51-.02.06-.05.12-.08.18.34.08,3.59.89,4.98,4.14.06.14,1.36,3.31-.32,6.23-1.98,3.44-6.42,3.64-8.05,3.72-2.56.12-4.6-.59-5.76-1.09v-4.65c3.17,1.08,5.92.79,6.81-.63.41-.65.31-1.36.3-1.44-.24-1.57-2.37-2.88-5.37-3.1.71-1.59,1.43-3.17,2.14-4.76-1.48-.33-3.58-1-5.65-2.52-6.54-4.79-6.66-13.58-6.69-15.71-.04-2.55-.12-8.66,3.84-13.29,5.15-6.02,15.42-7.49,25.24-3.24Z"/>
    <path class="cls-5" d="M602.51,341.81h5c.07-.36.43-2.17,1.94-2.94.27-.13,1.05-.48,2.72-.16,2.59.5,2.79,1.76,5.2,2.61.42.15,3.09,1.05,6.07.04.28-.09,1.29-.45,2.27-1.15,3.49-2.53,3.72-7.49,3.75-8.31h-5.05c-.03.44-.18,1.7-1.17,2.59-.82.75-1.8.85-2.23.9-2.67.26-3.6-1.85-6.86-2.91-.59-.19-4.28-1.39-7.34.44-1.84,1.1-2.7,2.85-3.18,3.82-1.03,2.08-1.14,4.01-1.13,5.06Z"/>
    <path class="cls-5" d="M670.67,372.75v7.5c-3.88,1.61-9.79,3.26-16.6,2.18-2.77-.44-5.84-.93-8.71-3.27-5.05-4.11-5.49-10.67-5.65-13.08-.19-2.86-.77-11.36,5.83-16.95,5.4-4.58,13.03-5.03,18.51-2.5,1.21.56,4.96,2.28,6.89,6.18,1.49,3.01,1.6,6.73,1.62,7.5.01.51.06,2.92.07,4.43,0,.17.02,1.64.02,1.64h0s-15.42-.03-23.13-.04c-.09,1.25-.07,3.77,1.51,5.84,2.69,3.51,7.96,3.21,10.92,3.04,1.86-.11,5.05-.55,8.72-2.46ZM649.52,360.02h14.09c.07-.81.18-3.24-1.41-5.14-2.55-3.03-8.11-3.11-10.88-.19-1.84,1.94-1.83,4.55-1.8,5.33Z"/>
    <path class="cls-5" d="M854.75,372.75v7.5c-3.88,1.61-9.79,3.26-16.6,2.18-2.77-.44-5.84-.93-8.71-3.27-5.05-4.11-5.49-10.67-5.65-13.08-.19-2.86-.77-11.36,5.83-16.95,5.4-4.58,13.03-5.03,18.51-2.5,1.21.56,4.96,2.28,6.89,6.18,1.49,3.01,1.6,6.73,1.62,7.5.01.51.06,2.92.07,4.43,0,.17.02,1.64.02,1.64h0s-15.42-.03-23.13-.04c-.09,1.25-.07,3.77,1.51,5.84,2.69,3.51,7.96,3.21,10.92,3.04,1.86-.11,5.05-.55,8.72-2.46ZM833.6,360.02h14.09c.07-.81.18-3.24-1.41-5.14-2.55-3.03-8.11-3.11-10.88-.19-1.84,1.94-1.83,4.55-1.8,5.33Z"/>
    <path class="cls-5" d="M678.84,380.71v-8c1.74.65,14.64,5.4,17.01,1.89.35-.53.73-1.61.49-2.69-.46-2.06-2.92-3.09-4.27-3.69-5.05-2.26-10.87-4.85-12.83-8.66-1.55-3.01-.72-6.85.66-9.21,4.21-7.2,16.26-5.31,17.47-5.12,3.65.57,6.46,1.93,8.2,2.95-1,2.31-2,4.63-2.99,6.94-6.57-2.92-12.01-3.69-13.54-1.59-.46.63-.57,1.53-.4,2.26.57,2.47,4.2,2.6,9.26,5.26,3.51,1.85,6.06,3.19,7.41,5.88,1.55,3.11,1.09,7.24-.67,10.13-4.75,7.78-18.42,5.66-19.83,5.42-2.51-.42-4.54-1.15-5.98-1.76Z"/>
    <path class="cls-5" d="M1052.58,380.71v-8c1.74.65,14.64,5.4,17.01,1.89.35-.53.73-1.61.49-2.69-.46-2.06-2.92-3.09-4.27-3.69-5.05-2.26-10.87-4.85-12.83-8.66-1.55-3.01-.72-6.85.66-9.21,4.21-7.2,16.26-5.31,17.47-5.12,3.65.57,6.46,1.93,8.2,2.95-1,2.31-2,4.63-2.99,6.94-6.57-2.92-12.01-3.69-13.54-1.59-.46.63-.57,1.53-.4,2.26.57,2.47,4.2,2.6,9.26,5.26,3.51,1.85,6.06,3.19,7.41,5.88,1.55,3.11,1.09,7.24-.67,10.13-4.75,7.78-18.42,5.66-19.83,5.42-2.51-.42-4.54-1.15-5.98-1.76Z"/>
    <path class="cls-5" d="M793.2,353.36v-4.36l5.58-3.4,2.59-7.42h6.33v7.59h10.01v7.59l-10,.06-.14,15.12-.02,2.27c.05,2.05.93,3,1.24,3.29,1.45,1.37,3.72,1.06,5.83.78,1.51-.2,2.71-.6,3.49-.9v7.08c-.45.22-1.21.56-2.18.89-1.42.48-7.53,2.56-12.72-.32-1.86-1.04-2.96-2.36-3.24-2.7-3.23-4-2.08-8.55-2.15-25.18,0-.17,0-.3,0-.39-1.54,0-3.09,0-4.63,0Z"/>
    <path class="cls-5" d="M943.44,345.18c1.19-.11,13.44-1.14,17.48,6.09,1.06,1.9,1.24,3.8,1.25,5.02v25.86h-6.4l-2.59-4.56h-.61c-.58.87-1.6,2.16-3.23,3.24-3.45,2.28-7.13,1.95-8.72,1.8-1.98-.18-5.03-.46-7.34-2.54-4.12-3.72-4.36-11.82-.82-16.07,3.27-3.92,9.42-4.11,16.75-4.34,1.4-.04,2.57-.02,3.36.01,0-.17,0-.43,0-.75-.02-1.56-.04-2.51-.44-3.48,0,0-.31-.73-.87-1.36-2.1-2.36-7.07-1.44-8.66-1.14-1.4.26-3.54.82-5.96,2.15-1.15-2.18-2.31-4.36-3.46-6.53,4.28-2.51,8.07-3.19,10.26-3.4ZM950.43,365.54c-3.75-.02-4.63.11-5.33.27-.72.16-1.59.36-2.56.95-.59.36-1.36.82-1.9,1.75-.57.97-.57,1.92-.57,2.56,0,.63,0,1.54.56,2.48.39.65.87,1.02,1,1.11.26.19.98.66,3.12.7,1.79.03,2.96.05,4.28-.66.33-.18,1.23-.71,2-1.74.92-1.24,1.12-2.49,1.19-2.94.08-.57.02-.68.06-2.41.02-.86.05-1.57.07-2.04-.43,0-1.09-.02-1.9-.02Z"/>
    <path class="cls-5" d="M1025.52,345.18c1.19-.11,13.44-1.14,17.48,6.09,1.06,1.9,1.24,3.8,1.25,5.02v25.86h-6.4l-2.59-4.56h-.61c-.58.87-1.6,2.16-3.23,3.24-3.45,2.28-7.13,1.95-8.72,1.8-1.98-.18-5.03-.46-7.34-2.54-4.12-3.72-4.36-11.82-.82-16.07,3.27-3.92,9.42-4.11,16.75-4.34,1.4-.04,2.57-.02,3.36.01,0-.17,0-.43,0-.75-.02-1.56-.04-2.51-.44-3.48,0,0-.31-.73-.87-1.36-2.1-2.36-7.07-1.44-8.66-1.14-1.4.26-3.54.82-5.96,2.15-1.15-2.18-2.31-4.36-3.46-6.53,4.28-2.51,8.07-3.19,10.26-3.4ZM1032.51,365.54c-3.75-.02-4.63.11-5.33.27-.72.16-1.59.36-2.56.95-.59.36-1.36.82-1.9,1.75-.57.97-.57,1.92-.57,2.56,0,.63,0,1.54.56,2.48.39.65.87,1.02,1,1.11.26.19.98.66,3.12.7,1.79.03,2.96.05,4.28-.66.33-.18,1.23-.71,2-1.74.92-1.24,1.12-2.49,1.19-2.94.08-.57.02-.68.06-2.41.02-.86.05-1.57.07-2.04-.43,0-1.09-.02-1.9-.02Z"/>
    <path class="cls-5" d="M911.96,381.9h-9.85v-35.94h7.4l1.63,6.38c.61-1.12,2.19-3.69,5.35-5.44,4.13-2.29,8.13-1.64,9.27-1.42-.2,3.13-.41,6.27-.61,9.4-.33-.01-.82-.03-1.42-.04-3.63-.06-5.44-.09-6.87.53-1.82.79-2.83,2.19-3.14,2.62-1.03,1.46-1.3,2.93-1.5,4.78-.26,2.34-.29,4.04-.29,8.52,0,3.06.02,5.09.03,9.47v1.14Z"/>
    <path class="cls-5" d="M896.14,345.9l-.05,5.52c-1.12-.09-2.63-.06-4.3.46-.48.15-.91.32-1.31.5.54,1.09,1.39,3.17,1.42,5.9,0,1.07.04,3.76-1.46,6.23-3.74,6.18-13.82,5.68-15.38,5.6-.84-.04-1.54-.13-2-.19-.15.12-1.44,1.15-1.24,2.39.03.22.17.75.89,1.33,1.84,1.46,5.13,1.27,6.57,1.21,4.59-.18,9.02-.36,12.39,1.94.51.35,1.71,1.19,2.63,2.7,2.42,3.98,1.4,9.72-1.59,13.24-2.43,2.86-5.69,3.72-8.28,4.4-2.3.6-4.16.63-7.9.7-2.83.05-5.04.07-7.87-.62-2.24-.54-3.72-.9-5.23-2.1-.31-.25-3.78-3.08-3.62-7.27.15-3.87,3.35-7.47,7.91-8.52-2.1-1.04-3.57-2.9-3.63-4.9-.06-2.13,1.5-3.8,2.3-4.66.73-.79,1.47-1.31,2-1.64-.97-.54-3.2-1.95-4.62-4.73-1.3-2.54-1.24-4.86-1.18-6.18.12-3.12,1.27-5.56,1.96-6.67,2.83-4.52,10.4-6.62,18.53-4.47,4.36-.05,8.71-.1,13.07-.15ZM871.64,357.6c-.03.97-.13,3.92,2.18,5.68,1.93,1.48,4.87,1.59,6.84.1,2.18-1.64,2.14-4.43,2.13-5.55-.01-1.18-.05-4.14-2.48-5.73-1.86-1.21-4.39-1.15-6.2.08-2.33,1.58-2.42,4.38-2.46,5.42ZM868.85,388.7c1.2,2.69,5.72,2.78,8.18,2.82,2.45.05,7.53.15,9.39-3.05.18-.31,1.03-1.77.51-3.15-1.07-2.84-6.97-2.71-9.39-2.66-2.99.07-7.26.16-8.58,2.82-.46.93-.56,2.18-.1,3.2Z"/>
    <path class="cls-5" d="M994.31,350.05v-18.31h9.77v50.37h-7.55l-2.21-4.49c-.79,1.1-2.43,3.06-5.17,4.25-5.81,2.54-11.37-.62-11.81-.88-7.18-4.23-7.08-14.35-7.04-17.3.04-3.42.12-11.34,6.13-15.72.51-.37,6.35-4.48,12.59-2.04,2.79,1.09,4.49,3.03,5.31,4.12ZM983.93,374.23c2.19,1.23,5.15,1.25,7.35-.05,3.79-2.24,3.71-7.48,3.68-10.31-.04-2.97-.1-7.23-3.37-9.39-2.22-1.47-5.37-1.62-7.71-.31-3.7,2.08-3.82,6.99-3.88,9.6-.06,2.37-.19,8.15,3.93,10.46Z"/>
  </g>
  <g>
    <path class="cls-2" d="M243.33,257.27c4.23,2.73,8.49,5.4,12.82,7.91,1.07.62,3.97,2.27,8.33,4.45-5.4-5.38-13.33-9.37-21.16-12.36Z"/>
    <path class="cls-3" d="M243.33,257.27c7.83,2.99,15.76,6.99,21.16,12.36,8.75,4.37,23.47,10.9,41.86,15.74,25.22,6.64,38.24,5.07,46.01,3.35,8.68-1.92,15.64-5.1,20.62-7.87-.23-11.79-1.98-20.93-2.89-25.25-1.99-9.54-4.79-22.33-13.88-36.07-3.16-4.77-15.45-22.32-55.74-40.43-20.97-9.42-23.53-7.31-69.53-22.22-47.2-15.3-58.77-22.14-62.69-33.96-3.06-9.22-1.08-20.32,4.49-27.97,18.11-24.89,72.15-10.58,87.02-6.64,14.27,3.78,36.75,11.72,61.15,29.95,13.25-25.13,26.5-50.25,39.75-75.38-11.52-7.1-29.25-16.91-52.24-25.29-23.67-8.62-65.97-23.46-118.35-15.15-19.95,3.17-43.48,6.9-67.05,24.82-5.56,4.23-36.2,27.6-43.85,60.29,20.94,29.94,40.3,53.7,55.08,70.76,27.85,32.13,65.72,70.94,109.08,98.95Z"/>
    <g class="cls-6">
      <path class="cls-5" d="M238.26,316.78c-29.08,5.93-67.76-6.69-79.74-10.6-15.43-5.04-38.06-14.43-62.55-32.87-13.22,26.3-26.43,52.59-39.65,78.88,18.5,12.02,45.6,26.84,80.65,37.13,50.83,14.92,91.36,12.39,102.5,11.5,28.49-2.28,58.63-5.07,87.39-26.27,6.17-4.55,19.89-14.87,30.63-32.84,2.25-3.76,4.12-7.54,5.8-11.3l-125.04-13.63Z"/>
      <path class="cls-1" d="M165.89,306.32c26.98,17.61,51.2,29.16,69.24,36.67,52.47,21.83,82.71,21.87,90.53,21.75,7.9-.13,14.38-.78,18.67-1.31l13.82-15.25,8.44-15.79-151.64-26.95c-16.35.29-32.7.59-49.06.88Z"/>
    </g>
    <path class="cls-4" d="M32.4,174.01l-17.83,15.52L0,98.59l85.21,31.58-15.93,13.2c48.23,59.35,97.59,95.99,131.7,117.51,0,0,90.38,57.02,156.14,46.76,7.28-1.14,22.05-3.66,30.7-15.52,9.2-12.62,6.72-29.34,6.06-33.79-1.52-10.23-5.59-17.87-8.44-22.32,3.7,3.05,29.03,24.56,26.2,53.02-2.86,28.87-32.69,44.78-40.22,48.8-67.72,36.13-166.24-24.39-211.4-52.14-33.07-20.32-80.74-54.92-127.62-111.69Z"/>
  </g>
</svg>